<svg width="24" height="24" viewBox="0 0 24 24" fill="none" xmlns="http://www.w3.org/2000/svg">
<path d="M21.5 12.05C21.5 11.81 21.4 11.58 21.22 11.41C21.05 11.24 20.82 11.14 20.58 11.14C20.34 11.14 20.11 11.24 19.94 11.41L12.44 18.91C11.57 19.77 10.57 20.19 9.39 20.19H9.32C8.1 20.17 7.07 19.73 6.17 18.83C5.29 17.95 4.85 16.92 4.81 15.7V15.6C4.81 14.42 5.22 13.44 6.06 12.59L14.04 4.62C14.58 4.08 15.19 3.83 15.93 3.82H15.95C16.7 3.82 17.32 4.09 17.87 4.63C18.41 5.18 18.68 5.8 18.68 6.55V6.57C18.68 7.31 18.42 7.92 17.88 8.46L10.64 15.7C10.44 15.9 10.22 16 9.94 16H9.91C9.64 16 9.44 15.91 9.25 15.72C9.07 15.53 8.98 15.34 8.98 15.08V15.03C8.99 14.74 9.1 14.51 9.31 14.29L16.08 7.52C16.25 7.35 16.35 7.13 16.34 6.89V6.86C16.34 6.62 16.24 6.39 16.07 6.22C15.9 6.05 15.67 5.95 15.43 5.95C15.19 5.95 14.96 6.05 14.79 6.22L8.08 12.93C7.51 13.49 7.2 14.18 7.17 14.96V15.08C7.17 15.81 7.44 16.46 7.96 16.99C8.5 17.54 9.17 17.82 9.93 17.82H9.96C10.72 17.82 11.4 17.53 11.95 16.98L19.17 9.76C20.07 8.87 20.53 7.77 20.53 6.53C20.53 5.29 20.08 4.19 19.18 3.3C18.3 2.45 17.21 2 15.97 2C14.72 2 13.64 2.45 12.75 3.34L4.81 11.28C3.61 12.47 3 13.93 3 15.61V15.7C3.02 17.41 3.65 18.9 4.88 20.13C6.1 21.36 7.6 21.99 9.32 22.01H9.39C11.08 22.01 12.55 21.4 13.75 20.2L21.23 12.72C21.4 12.55 21.5 12.33 21.49 12.09V12.06L21.5 12.05Z" fill="#FAFAFA"/>
</svg>
