<svg width="12" height="10" viewBox="0 0 12 10" fill="none" xmlns="http://www.w3.org/2000/svg">
<path d="M3.6225 7.4225L10.335 0.71C10.47 0.5675 10.665 0.5 10.86 0.5C11.055 0.5 11.2425 0.5675 11.385 0.71C11.52 0.8525 11.595 1.04 11.595 1.235C11.595 1.43 11.5275 1.6175 11.385 1.76L4.1475 8.9975C4.0125 9.14 3.8175 9.2225 3.6225 9.2225C3.4275 9.2225 3.2325 9.14 3.0975 8.9975L0.21 6.11C0.0675 5.9675 0 5.78 0 5.585C0 5.39 0.0675 5.2025 0.21 5.06C0.3525 4.925 0.54 4.85 0.735 4.85C0.93 4.85 1.1175 4.9175 1.26 5.06L3.6225 7.4225Z" fill="#4A0FC9"/>
</svg>
