<svg width="8" height="6" viewBox="0 0 8 6" fill="none" xmlns="http://www.w3.org/2000/svg">
<path d="M7.5625 0.9375C7.4425 0.8175 7.285 0.75 7.09 0.75C6.895 0.75 6.745 0.81 6.6175 0.9375L3.9925 3.5625L1.375 0.9375C1.255 0.8175 1.0975 0.75 0.9025 0.75C0.7075 0.75 0.5575 0.81 0.4375 0.9375C0.3175 1.0575 0.25 1.215 0.25 1.41C0.25 1.605 0.31 1.755 0.4375 1.8825L3.5275 4.9725C3.595 5.04 3.67 5.085 3.745 5.115C3.82 5.145 3.91 5.16 4 5.16C4.09 5.16 4.1725 5.145 4.255 5.115C4.33 5.085 4.405 5.04 4.4725 4.9725L7.5625 1.875C7.6825 1.755 7.75 1.5975 7.75 1.4025C7.75 1.2075 7.69 1.0575 7.5625 0.93V0.9375Z" fill="#FAFAFA"/>
</svg>
