<svg width="15" height="14" viewBox="0 0 15 14" fill="none" xmlns="http://www.w3.org/2000/svg">
<path d="M7.5 1.16663C6.18254 1.16656 4.91828 1.65182 3.98203 2.51692C3.04577 3.38202 2.51317 4.55705 2.5 5.78663C2.5 8.98329 6.90625 12.5416 7.09375 12.6933C7.20696 12.7837 7.35103 12.8333 7.5 12.8333C7.64897 12.8333 7.79304 12.7837 7.90625 12.6933C8.125 12.5416 12.5 8.98329 12.5 5.78663C12.4868 4.55705 11.9542 3.38202 11.018 2.51692C10.0817 1.65182 8.81746 1.16656 7.5 1.16663ZM7.5 7.58329C7.06735 7.58329 6.64442 7.46355 6.28469 7.23921C5.92496 7.01487 5.64458 6.696 5.47901 6.32294C5.31345 5.94987 5.27013 5.53936 5.35453 5.14332C5.43894 4.74727 5.64728 4.38348 5.9532 4.09795C6.25913 3.81242 6.64891 3.61797 7.07324 3.53919C7.49757 3.46041 7.93741 3.50084 8.33712 3.65537C8.73683 3.8099 9.07847 4.07159 9.31884 4.40734C9.55921 4.74309 9.6875 5.13782 9.6875 5.54163C9.6875 6.08311 9.45703 6.60242 9.0468 6.9853C8.63656 7.36819 8.08016 7.58329 7.5 7.58329Z" fill="#FAFAFA"/>
</svg>
