<svg width="24" height="24" viewBox="0 0 24 24" fill="none" xmlns="http://www.w3.org/2000/svg">
<path d="M10.335 13.6645L3.675 10.9645C3.486 10.8745 3.315 10.7395 3.198 10.5775C3.063 10.3975 3 10.1905 3 9.97447C3 9.75847 3.054 9.55147 3.18 9.37147C3.306 9.20047 3.477 9.05647 3.675 8.98447L19.587 3.08047C19.776 2.99047 19.983 2.97247 20.19 3.02647C20.379 3.08047 20.55 3.17947 20.685 3.31447C20.82 3.44947 20.919 3.62047 20.973 3.80947C21.027 4.00747 21.009 4.22347 20.919 4.41247L15.015 20.3245C14.943 20.5315 14.799 20.7115 14.61 20.8285C14.439 20.9365 14.25 20.9995 14.052 20.9995C13.845 20.9995 13.656 20.9365 13.485 20.8285C13.287 20.7115 13.134 20.5315 13.044 20.3245L10.335 13.6645Z" fill="#FAFAFA"/>
</svg>
